<?xml version="1.0" encoding="UTF-8" standalone="no"?>
<!-- Copyright 2021 mathsisfun.com -->

<svg
   width="223.43851"
   height="169.66812"
   version="1.0"
   style="font-size:1.4px;fill:#2a7fff"
   id="svg301"
   sodipodi:docname="modulus.svg"
   inkscape:version="1.2.2 (b0a8486541, 2022-12-01)"
   xmlns:inkscape="http://www.inkscape.org/namespaces/inkscape"
   xmlns:sodipodi="http://sodipodi.sourceforge.net/DTD/sodipodi-0.dtd"
   xmlns:xlink="http://www.w3.org/1999/xlink"
   xmlns="http://www.w3.org/2000/svg"
   xmlns:svg="http://www.w3.org/2000/svg">
  <sodipodi:namedview
     id="namedview303"
     pagecolor="#ffffff"
     bordercolor="#000000"
     borderopacity="0.25"
     inkscape:showpageshadow="2"
     inkscape:pageopacity="0.0"
     inkscape:pagecheckerboard="0"
     inkscape:deskcolor="#d1d1d1"
     showgrid="false"
     inkscape:zoom="1.5421559"
     inkscape:cx="98.239097"
     inkscape:cy="104.07508"
     inkscape:window-width="1422"
     inkscape:window-height="719"
     inkscape:window-x="0"
     inkscape:window-y="0"
     inkscape:window-maximized="1"
     inkscape:current-layer="svg301" />
  <defs
     id="defs39">
    <marker
       id="id9"
       style="overflow:visible"
       orient="auto">
      <path
         transform="matrix(0.4,0,0,0.4,4,0)"
         style="fill:#c4a000;stroke:#c4a000;stroke-width:1pt"
         d="M 0,0 5,-5 -12.5,0 5,5 Z"
         id="path2" />
    </marker>
    <linearGradient
       id="id2"
       gradientTransform="matrix(1,0,0,-1,0,-538)"
       x1="62.400002"
       y1="-595"
       x2="62.400002"
       y2="-603.20001"
       gradientUnits="userSpaceOnUse">
      <stop
         offset="0"
         style="stop-color:#8BA4D6;"
         id="stop5" />
      <stop
         offset="1"
         style="stop-color:#1B3EA6;"
         id="stop7" />
    </linearGradient>
    <linearGradient
       id="id1"
       gradientTransform="matrix(0.469933,0.047414,0.08074,-0.275962,171.412,-150.977)"
       x1="-160"
       y1="-726.59998"
       x2="-160"
       y2="-729.09998"
       gradientUnits="userSpaceOnUse">
      <stop
         offset="0"
         style="stop-color:#524AC9;"
         id="stop10" />
      <stop
         offset="0.096"
         style="stop-color:#5855BC;"
         id="stop12" />
      <stop
         offset="0.235"
         style="stop-color:#5D60AF;"
         id="stop14" />
      <stop
         offset="0.368"
         style="stop-color:#5F64AB;"
         id="stop16" />
      <stop
         offset="0.725"
         style="stop-color:#190C7F;"
         id="stop18" />
    </linearGradient>
    <linearGradient
       id="id4"
       x1="128"
       y1="239.7"
       x2="128"
       y2="16.299999"
       gradientUnits="userSpaceOnUse">
      <stop
         offset="0"
         style="stop-color:white; stop-opacity:1;"
         id="stop21" />
      <stop
         offset="0.5"
         style="stop-color:#006dff; stop-opacity:1;"
         id="stop23" />
      <stop
         offset="1"
         style="stop-color:#c9e6ff; stop-opacity:1;"
         id="stop25" />
    </linearGradient>
    <linearGradient
       id="id3"
       x1="128"
       y1="244.39999"
       x2="128"
       y2="11.5"
       gradientUnits="userSpaceOnUse">
      <stop
         offset="0.006"
         style="stop-color:#428aff; stop-opacity:1;"
         id="stop28" />
      <stop
         offset="0.573"
         style="stop-color:#94caff; stop-opacity:1;"
         id="stop30" />
      <stop
         offset="1"
         style="stop-color:#dcf0ff; stop-opacity:1;"
         id="stop32" />
    </linearGradient>
    <linearGradient
       id="id7"
       gradientTransform="matrix(-0.52052747,0.09887038,0.02046259,0.34034093,48.298839,365.07032)"
       xlink:href="#id1"
       x1="-160"
       y1="-726.59998"
       x2="-160"
       y2="-729.09998"
       gradientUnits="userSpaceOnUse" />
    <linearGradient
       id="id8"
       gradientTransform="matrix(1,0,0,-1,0,-538)"
       xlink:href="#id2"
       x1="62.400002"
       y1="-595"
       x2="62.400002"
       y2="-603.20001"
       gradientUnits="userSpaceOnUse" />
    <linearGradient
       id="id5"
       gradientTransform="matrix(0.284983,0,0,0.284983,-15.8506,131.816)"
       xlink:href="#id3"
       x1="128"
       y1="244.39999"
       x2="128"
       y2="11.5"
       gradientUnits="userSpaceOnUse" />
    <linearGradient
       id="id6"
       gradientTransform="matrix(0.284983,0,0,0.284983,-15.8506,131.816)"
       xlink:href="#id4"
       x1="128"
       y1="239.7"
       x2="128"
       y2="16.299999"
       gradientUnits="userSpaceOnUse" />
  </defs>
  <g
     transform="matrix(2.0932389,0,0,2.0932389,38.515003,-263.4964)"
     id="g49">
    <path
       style="fill:#204a87"
       d="m -13.4,168.3 c 0,18.8 15.3,34 34,34 18.8,0 34,-15.3 34,-34 0,-18.8 -15.3,-34 -34,-34 -18.8,0 -34,15.3 -34,34 z"
       id="path41" />
    <path
       style="fill:url(#id5)"
       d="m -12.3,168.3 c 0,18.2 14.8,33 33,33 18.2,0 32.9,-14.8 32.9,-33 0,-18.2 -14.8,-33 -32.9,-33 -18.2,0 -33,14.8 -33,33 z"
       id="path43" />
    <path
       style="fill:url(#id6)"
       d="m -11.2,168.3 c 0,17.6 14.3,31.8 31.8,31.8 17.6,0 31.8,-14.3 31.8,-31.8 0,-17.6 -14.3,-31.8 -31.8,-31.8 -17.6,0 -31.8,14.3 -31.8,31.8 z"
       id="path45" />
    <path
       style="fill:#ffffff"
       d="m -10.1,168.3 c 0,16.9 13.8,30.7 30.7,30.7 16.9,0 30.7,-13.8 30.7,-30.7 0,-16.9 -13.8,-30.7 -30.7,-30.7 -16.9,0 -30.7,13.8 -30.7,30.7 z"
       id="path47" />
  </g>
  <g
     transform="matrix(1.8546991,0,0,1.8546991,-132.29938,-125.56382)"
     id="g257">
    <g
       id="g255">
      <g
         transform="matrix(0.547041,0,0,0.547041,81.7339,81.9249)"
         id="g53">
        <path
           d="m 70.9,19.2 c -0.6,0 -1.1,-0.5 -1.1,-1.1 0,-0.6 0.5,-1.1 1.1,-1.1 0.6,0 1.1,0.5 1.1,1.1 0,0.6 -0.5,1.1 -1.1,1.1 z"
           id="path51" />
      </g>
      <g
         transform="matrix(0.547041,0,0,0.547041,81.7339,81.9249)"
         id="g57">
        <path
           d="m 66,18.6 c -0.6,0 -1.1,-0.5 -1.1,-1.1 0,-0.6 0.5,-1.1 1.1,-1.1 0.6,0 1.1,0.5 1.1,1.1 0,0.6 -0.5,1.1 -1.1,1.1 z"
           id="path55" />
      </g>
      <g
         transform="matrix(0.547041,0,0,0.547041,81.7339,81.9249)"
         id="g61">
        <path
           d="m 75.5,20.5 c -0.6,0 -1.1,-0.5 -1.1,-1.1 0,-0.6 0.5,-1.1 1.1,-1.1 0.6,0 1.1,0.5 1.1,1.1 0,0.6 -0.5,1.1 -1.1,1.1 z"
           id="path59" />
      </g>
      <g
         transform="matrix(0.547041,0,0,0.547041,81.7339,81.9249)"
         id="g65">
        <path
           d="m 79.6,22.1 c -0.6,0 -1.1,-0.5 -1.1,-1.1 0,-0.6 0.5,-1.1 1.1,-1.1 0.6,0 1.1,0.5 1.1,1.1 0,0.6 -0.5,1.1 -1.1,1.1 z"
           id="path63" />
      </g>
      <g
         transform="matrix(0.547041,0,0,0.547041,81.7339,81.9249)"
         id="g69">
        <path
           d="m 87.9,26.7 c -0.6,0 -1.1,-0.5 -1.1,-1.1 0,-0.6 0.5,-1.1 1.1,-1.1 0.6,0 1.1,0.5 1.1,1.1 0,0.6 -0.5,1.1 -1.1,1.1 z"
           id="path67" />
      </g>
      <g
         transform="matrix(0.547041,0,0,0.547041,81.7339,81.9249)"
         id="g73">
        <path
           d="m 95,33.1 c -0.6,0 -1.1,-0.5 -1.1,-1.1 0,-0.6 0.5,-1.1 1.1,-1.1 0.6,0 1.1,0.5 1.1,1.1 0,0.6 -0.5,1.1 -1.1,1.1 z"
           id="path71" />
      </g>
      <g
         transform="matrix(0.547041,0,0,0.547041,81.7339,81.9249)"
         id="g77">
        <path
           d="m 98,36.8 c -0.6,0 -1.1,-0.5 -1.1,-1.1 0,-0.6 0.5,-1.1 1.1,-1.1 0.6,0 1.1,0.5 1.1,1.1 0,0.6 -0.5,1.1 -1.1,1.1 z"
           id="path75" />
      </g>
      <g
         transform="matrix(0.547041,0,0,0.547041,81.7339,81.9249)"
         id="g81">
        <path
           d="m 102.8,45.2 c -0.6,0 -1.1,-0.5 -1.1,-1.1 0,-0.6 0.5,-1.1 1.1,-1.1 0.6,0 1.1,0.5 1.1,1.1 0,0.6 -0.5,1.1 -1.1,1.1 z"
           id="path79" />
      </g>
      <g
         transform="matrix(0.547041,0,0,0.547041,81.7339,81.9249)"
         id="g85">
        <path
           d="m 104.5,49.4 c -0.6,0 -1.1,-0.5 -1.1,-1.1 0,-0.6 0.5,-1.1 1.1,-1.1 0.6,0 1.1,0.5 1.1,1.1 0,0.6 -0.5,1.1 -1.1,1.1 z"
           id="path83" />
      </g>
      <g
         transform="matrix(0.547041,0,0,0.547041,81.7339,81.9249)"
         id="g89">
        <path
           d="m 105.5,53.7 c -0.6,0 -1.1,-0.5 -1.1,-1.1 0,-0.6 0.5,-1.1 1.1,-1.1 0.6,0 1.1,0.5 1.1,1.1 0,0.6 -0.5,1.1 -1.1,1.1 z"
           id="path87" />
      </g>
      <g
         transform="matrix(0.547041,0,0,0.547041,81.7339,81.9249)"
         id="g93">
        <path
           d="m 106.5,58.6 c -0.6,0 -1.1,-0.5 -1.1,-1.1 0,-0.6 0.5,-1.1 1.1,-1.1 0.6,0 1.1,0.5 1.1,1.1 0,0.6 -0.5,1.1 -1.1,1.1 z"
           id="path91" />
      </g>
      <g
         transform="matrix(0.547041,0,0,0.547041,81.7339,81.9249)"
         id="g97">
        <path
           d="m 106.4,68.1 c -0.6,0 -1.1,-0.5 -1.1,-1.1 0,-0.6 0.5,-1.1 1.1,-1.1 0.6,0 1.1,0.5 1.1,1.1 0,0.6 -0.5,1.1 -1.1,1.1 z"
           id="path95" />
      </g>
      <g
         transform="matrix(0.547041,0,0,0.547041,81.7339,81.9249)"
         id="g101">
        <path
           d="m 105.6,72.7 c -0.6,0 -1.1,-0.5 -1.1,-1.1 0,-0.6 0.5,-1.1 1.1,-1.1 0.6,0 1.1,0.5 1.1,1.1 0,0.6 -0.5,1.1 -1.1,1.1 z"
           id="path99" />
      </g>
      <g
         transform="matrix(0.547041,0,0,0.547041,81.7339,81.9249)"
         id="g105">
        <path
           d="m 104.4,77.5 c -0.6,0 -1.1,-0.5 -1.1,-1.1 0,-0.6 0.5,-1.1 1.1,-1.1 0.6,0 1.1,0.5 1.1,1.1 0,0.6 -0.5,1.1 -1.1,1.1 z"
           id="path103" />
      </g>
      <g
         transform="matrix(0.547041,0,0,0.547041,81.7339,81.9249)"
         id="g109">
        <path
           d="m 102.4,81.7 c -0.6,0 -1.1,-0.5 -1.1,-1.1 0,-0.6 0.5,-1.1 1.1,-1.1 0.6,0 1.1,0.5 1.1,1.1 0,0.6 -0.5,1.1 -1.1,1.1 z"
           id="path107" />
      </g>
      <g
         transform="matrix(0.547041,0,0,0.547041,81.7339,81.9249)"
         id="g113">
        <path
           d="m 98,90 c -0.6,0 -1.1,-0.5 -1.1,-1.1 0,-0.6 0.5,-1.1 1.1,-1.1 0.6,0 1.1,0.5 1.1,1.1 0,0.6 -0.5,1.1 -1.1,1.1 z"
           id="path111" />
      </g>
      <g
         transform="matrix(0.547041,0,0,0.547041,81.7339,81.9249)"
         id="g117">
        <path
           d="m 94.9,93.7 c -0.6,0 -1.1,-0.5 -1.1,-1.1 0,-0.6 0.5,-1.1 1.1,-1.1 0.6,0 1.1,0.5 1.1,1.1 0,0.6 -0.5,1.1 -1.1,1.1 z"
           id="path115" />
      </g>
      <g
         transform="matrix(0.547041,0,0,0.547041,81.7339,81.9249)"
         id="g121">
        <path
           d="m 91.6,97 c -0.6,0 -1.1,-0.5 -1.1,-1.1 0,-0.6 0.5,-1.1 1.1,-1.1 0.6,0 1.1,0.5 1.1,1.1 0,0.6 -0.5,1.1 -1.1,1.1 z"
           id="path119" />
      </g>
      <g
         transform="matrix(0.547041,0,0,0.547041,81.7339,81.9249)"
         id="g125">
        <path
           d="m 88,100 c -0.6,0 -1.1,-0.5 -1.1,-1.1 0,-0.6 0.5,-1.1 1.1,-1.1 0.6,0 1.1,0.5 1.1,1.1 0,0.6 -0.5,1.1 -1.1,1.1 z"
           id="path123" />
      </g>
      <g
         transform="matrix(0.547041,0,0,0.547041,81.7339,81.9249)"
         id="g129">
        <path
           d="m 79.5,104.7 c -0.6,0 -1.1,-0.5 -1.1,-1.1 0,-0.6 0.5,-1.1 1.1,-1.1 0.6,0 1.1,0.5 1.1,1.1 0,0.6 -0.5,1.1 -1.1,1.1 z"
           id="path127" />
      </g>
      <g
         transform="matrix(0.547041,0,0,0.547041,81.7339,81.9249)"
         id="g133">
        <path
           d="m 75.4,106.6 c -0.6,0 -1.1,-0.5 -1.1,-1.1 0,-0.6 0.5,-1.1 1.1,-1.1 0.6,0 1.1,0.5 1.1,1.1 0,0.6 -0.5,1.1 -1.1,1.1 z"
           id="path131" />
      </g>
      <g
         transform="matrix(0.547041,0,0,0.547041,81.7339,81.9249)"
         id="g137">
        <path
           d="m 70.6,107.6 c -0.6,0 -1.1,-0.5 -1.1,-1.1 0,-0.6 0.5,-1.1 1.1,-1.1 0.6,0 1.1,0.5 1.1,1.1 0,0.6 -0.5,1.1 -1.1,1.1 z"
           id="path135" />
      </g>
      <g
         transform="matrix(0.547041,0,0,0.547041,81.7339,81.9249)"
         id="g141">
        <path
           d="m 66.1,108.5 c -0.6,0 -1.1,-0.5 -1.1,-1.1 0,-0.6 0.5,-1.1 1.1,-1.1 0.6,0 1.1,0.5 1.1,1.1 0,0.6 -0.5,1.1 -1.1,1.1 z"
           id="path139" />
      </g>
      <g
         transform="matrix(0.547041,0,0,0.547041,81.7339,81.9249)"
         id="g145">
        <path
           d="m 51.5,19.2 c -0.6,0 -1.1,-0.5 -1.1,-1.1 0,-0.6 0.5,-1.1 1.1,-1.1 0.6,0 1.1,0.5 1.1,1.1 0,0.6 -0.5,1.1 -1.1,1.1 z"
           id="path143" />
      </g>
      <g
         transform="matrix(0.547041,0,0,0.547041,81.7339,81.9249)"
         id="g149">
        <path
           d="m 56.4,18.6 c -0.6,0 -1.1,-0.5 -1.1,-1.1 0,-0.6 0.5,-1.1 1.1,-1.1 0.6,0 1.1,0.5 1.1,1.1 0,0.6 -0.5,1.1 -1.1,1.1 z"
           id="path147" />
      </g>
      <g
         transform="matrix(0.547041,0,0,0.547041,81.7339,81.9249)"
         id="g153">
        <path
           d="m 47,20.5 c -0.6,0 -1.1,-0.5 -1.1,-1.1 0,-0.6 0.5,-1.1 1.1,-1.1 0.6,0 1.1,0.5 1.1,1.1 0,0.6 -0.5,1.1 -1.1,1.1 z"
           id="path151" />
      </g>
      <g
         transform="matrix(0.547041,0,0,0.547041,81.7339,81.9249)"
         id="g157">
        <path
           d="m 42.8,22.1 c -0.6,0 -1.1,-0.5 -1.1,-1.1 0,-0.6 0.5,-1.1 1.1,-1.1 0.6,0 1.1,0.5 1.1,1.1 0,0.6 -0.5,1.1 -1.1,1.1 z"
           id="path155" />
      </g>
      <g
         transform="matrix(0.547041,0,0,0.547041,81.7339,81.9249)"
         id="g161">
        <path
           d="m 34.5,26.7 c -0.6,0 -1.1,-0.5 -1.1,-1.1 0,-0.6 0.5,-1.1 1.1,-1.1 0.6,0 1.1,0.5 1.1,1.1 0,0.6 -0.5,1.1 -1.1,1.1 z"
           id="path159" />
      </g>
      <g
         transform="matrix(0.547041,0,0,0.547041,81.7339,81.9249)"
         id="g165">
        <path
           d="m 27.4,33.1 c -0.6,0 -1.1,-0.5 -1.1,-1.1 0,-0.6 0.5,-1.1 1.1,-1.1 0.6,0 1.1,0.5 1.1,1.1 0,0.6 -0.5,1.1 -1.1,1.1 z"
           id="path163" />
      </g>
      <g
         transform="matrix(0.547041,0,0,0.547041,81.7339,81.9249)"
         id="g169">
        <path
           d="m 31,29.7 c -0.6,0 -1.1,-0.5 -1.1,-1.1 0,-0.6 0.5,-1.1 1.1,-1.1 0.6,0 1.1,0.5 1.1,1.1 0,0.6 -0.5,1.1 -1.1,1.1 z"
           id="path167" />
      </g>
      <g
         transform="matrix(0.547041,0,0,0.547041,81.7339,81.9249)"
         id="g173">
        <path
           d="m 24.5,36.8 c -0.6,0 -1.1,-0.5 -1.1,-1.1 0,-0.6 0.5,-1.1 1.1,-1.1 0.6,0 1.1,0.5 1.1,1.1 0,0.6 -0.5,1.1 -1.1,1.1 z"
           id="path171" />
      </g>
      <g
         transform="matrix(0.547041,0,0,0.547041,81.7339,81.9249)"
         id="g177">
        <path
           d="m 19.6,45.2 c -0.6,0 -1.1,-0.5 -1.1,-1.1 0,-0.6 0.5,-1.1 1.1,-1.1 0.6,0 1.1,0.5 1.1,1.1 0,0.6 -0.5,1.1 -1.1,1.1 z"
           id="path175" />
      </g>
      <g
         transform="matrix(0.547041,0,0,0.547041,81.7339,81.9249)"
         id="g181">
        <path
           d="m 17.9,49.4 c -0.6,0 -1.1,-0.5 -1.1,-1.1 0,-0.6 0.5,-1.1 1.1,-1.1 0.6,0 1.1,0.5 1.1,1.1 0,0.6 -0.5,1.1 -1.1,1.1 z"
           id="path179" />
      </g>
      <g
         transform="matrix(0.547041,0,0,0.547041,81.7339,81.9249)"
         id="g185">
        <path
           d="m 16.9,53.7 c -0.6,0 -1.1,-0.5 -1.1,-1.1 0,-0.6 0.5,-1.1 1.1,-1.1 0.6,0 1.1,0.5 1.1,1.1 0,0.6 -0.5,1.1 -1.1,1.1 z"
           id="path183" />
      </g>
      <g
         transform="matrix(0.547041,0,0,0.547041,81.7339,81.9249)"
         id="g189">
        <path
           d="m 15.9,58.6 c -0.6,0 -1.1,-0.5 -1.1,-1.1 0,-0.6 0.5,-1.1 1.1,-1.1 0.6,0 1.1,0.5 1.1,1.1 0,0.6 -0.5,1.1 -1.1,1.1 z"
           id="path187" />
      </g>
      <g
         transform="matrix(0.547041,0,0,0.547041,81.7339,81.9249)"
         id="g193">
        <path
           d="m 16,68.1 c -0.6,0 -1.1,-0.5 -1.1,-1.1 0,-0.6 0.5,-1.1 1.1,-1.1 0.6,0 1.1,0.5 1.1,1.1 0,0.6 -0.5,1.1 -1.1,1.1 z"
           id="path191" />
      </g>
      <g
         transform="matrix(0.547041,0,0,0.547041,81.7339,81.9249)"
         id="g197">
        <path
           d="m 16.8,72.7 c -0.6,0 -1.1,-0.5 -1.1,-1.1 0,-0.6 0.5,-1.1 1.1,-1.1 0.6,0 1.1,0.5 1.1,1.1 0,0.6 -0.5,1.1 -1.1,1.1 z"
           id="path195" />
      </g>
      <g
         transform="matrix(0.547041,0,0,0.547041,81.7339,81.9249)"
         id="g201">
        <path
           d="m 18,77.5 c -0.6,0 -1.1,-0.5 -1.1,-1.1 0,-0.6 0.5,-1.1 1.1,-1.1 0.6,0 1.1,0.5 1.1,1.1 0,0.6 -0.5,1.1 -1.1,1.1 z"
           id="path199" />
      </g>
      <g
         transform="matrix(0.547041,0,0,0.547041,81.7339,81.9249)"
         id="g205">
        <path
           d="m 20,81.7 c -0.6,0 -1.1,-0.5 -1.1,-1.1 0,-0.6 0.5,-1.1 1.1,-1.1 0.6,0 1.1,0.5 1.1,1.1 0,0.6 -0.5,1.1 -1.1,1.1 z"
           id="path203" />
      </g>
      <g
         transform="matrix(0.547041,0,0,0.547041,81.7339,81.9249)"
         id="g209">
        <path
           d="m 24.5,90 c -0.6,0 -1.1,-0.5 -1.1,-1.1 0,-0.6 0.5,-1.1 1.1,-1.1 0.6,0 1.1,0.5 1.1,1.1 0,0.6 -0.5,1.1 -1.1,1.1 z"
           id="path207" />
      </g>
      <g
         transform="matrix(0.547041,0,0,0.547041,81.7339,81.9249)"
         id="g213">
        <path
           d="m 27.5,93.7 c -0.6,0 -1.1,-0.5 -1.1,-1.1 0,-0.6 0.5,-1.1 1.1,-1.1 0.6,0 1.1,0.5 1.1,1.1 0,0.6 -0.5,1.1 -1.1,1.1 z"
           id="path211" />
      </g>
      <g
         transform="matrix(0.547041,0,0,0.547041,81.7339,81.9249)"
         id="g217">
        <path
           d="m 30.8,97 c -0.6,0 -1.1,-0.5 -1.1,-1.1 0,-0.6 0.5,-1.1 1.1,-1.1 0.6,0 1.1,0.5 1.1,1.1 0,0.6 -0.5,1.1 -1.1,1.1 z"
           id="path215" />
      </g>
      <g
         transform="matrix(0.547041,0,0,0.547041,81.7339,81.9249)"
         id="g221">
        <path
           d="m 34.4,100 c -0.6,0 -1.1,-0.5 -1.1,-1.1 0,-0.6 0.5,-1.1 1.1,-1.1 0.6,0 1.1,0.5 1.1,1.1 0,0.6 -0.5,1.1 -1.1,1.1 z"
           id="path219" />
      </g>
      <g
         transform="matrix(0.547041,0,0,0.547041,81.7339,81.9249)"
         id="g225">
        <path
           d="m 42.9,104.7 c -0.6,0 -1.1,-0.5 -1.1,-1.1 0,-0.6 0.5,-1.1 1.1,-1.1 0.6,0 1.1,0.5 1.1,1.1 0,0.6 -0.5,1.1 -1.1,1.1 z"
           id="path223" />
      </g>
      <g
         transform="matrix(0.547041,0,0,0.547041,81.7339,81.9249)"
         id="g229">
        <path
           d="m 47,106.6 c -0.6,0 -1.1,-0.5 -1.1,-1.1 0,-0.6 0.5,-1.1 1.1,-1.1 0.6,0 1.1,0.5 1.1,1.1 0,0.6 -0.5,1.1 -1.1,1.1 z"
           id="path227" />
      </g>
      <g
         transform="matrix(0.547041,0,0,0.547041,81.7339,81.9249)"
         id="g233">
        <path
           d="m 51.8,107.6 c -0.6,0 -1.1,-0.5 -1.1,-1.1 0,-0.6 0.5,-1.1 1.1,-1.1 0.6,0 1.1,0.5 1.1,1.1 0,0.6 -0.5,1.1 -1.1,1.1 z"
           id="path231" />
      </g>
      <g
         transform="matrix(0.547041,0,0,0.547041,81.7339,81.9249)"
         id="g237">
        <path
           d="m 56.3,108.5 c -0.6,0 -1.1,-0.5 -1.1,-1.1 0,-0.6 0.5,-1.1 1.1,-1.1 0.6,0 1.1,0.5 1.1,1.1 0,0.6 -0.5,1.1 -1.1,1.1 z"
           id="path235" />
      </g>
      <polygon
         points="62.875,111.25 60.874,111.25 60.874,102.624 62.875,102.624 "
         style="fill:#007ad2"
         transform="matrix(0.547041,0,0,0.547041,81.7339,81.9249)"
         id="polygon239" />
      <polygon
         points="62.874,21.458 60.874,21.458 60.874,12.5 62.874,12.5 "
         style="fill:#007ad2"
         transform="matrix(0.547041,0,0,0.547041,81.7339,81.9249)"
         id="polygon241" />
      <polygon
         points="111.021,63.104 102.395,63.104 102.395,61.103 111.021,61.103 "
         style="fill:#007ad2"
         transform="matrix(0.547041,0,0,0.547041,81.7339,81.9249)"
         id="polygon243" />
      <polygon
         points="21.354,63.104 12.728,63.104 12.728,61.104 21.354,61.104 "
         style="fill:#007ad2"
         transform="matrix(0.547041,0,0,0.547041,81.7339,81.9249)"
         id="polygon245" />
      <g
         style="fill:#5599ff"
         transform="matrix(0.547041,0,0,0.547041,81.7339,81.9249)"
         id="g249">
        <path
           style="fill:#5599ff"
           d="m 26.4,42.4 0.9,-1.5 -7.8,-4.4 -0.9,1.5 0.3,0.2 z m 10.1,-22.9 0.2,0.3 4.3,7.4 1.5,-0.9 -4.5,-7.7 z m 0,84.8 0.3,0.2 1.2,0.7 4.4,-7.8 -1.5,-0.9 z m -17.8,-18.5 0.2,0.3 0.7,1.2 7.7,-4.5 -0.9,-1.5 z m 78.6,-43.5 7.8,-4.4 -0.9,-1.5 -7.8,4.4 0.2,0.3 z m -14.5,-15.1 4.5,-7.7 -1.5,-0.9 -4.5,7.7 0.3,0.2 z m -1.5,70.2 0.2,0.3 4.2,7.4 1.5,-0.9 -4.4,-7.8 z m 15.1,-14.5 0.3,0.2 7.4,4.3 0.9,-1.5 -7.7,-4.5 z"
           id="path247" />
      </g>
      <g
         transform="matrix(0.547041,0,0,0.547041,83.9454,83.7272)"
         id="g253">
        <path
           d="m 87.9,26.7 c -0.6,0 -1.1,-0.5 -1.1,-1.1 0,-0.6 0.5,-1.1 1.1,-1.1 0.6,0 1.1,0.5 1.1,1.1 0,0.6 -0.5,1.1 -1.1,1.1 z"
           id="path251" />
      </g>
    </g>
  </g>
  <text
     x="78.05162"
     y="151.45055"
     style="font-weight:bold;font-size:12.6889px;font-family:Arial;fill:#2e3436;stroke:#000000;stroke-width:0.181269;stroke-opacity:0.71"
     id="text259">6</text>
  <text
     x="75.332581"
     y="36.344505"
     style="font-weight:bold;font-size:12.6889px;font-family:Arial;fill:#2e3436;stroke:#000000;stroke-width:0.181269;stroke-opacity:0.71"
     id="text261">12</text>
  <text
     x="134.24512"
     y="93.444359"
     style="font-weight:bold;font-size:12.6889px;font-family:Arial;fill:#2e3436;stroke:#000000;stroke-width:0.181269;stroke-opacity:0.71"
     id="text263">3</text>
  <text
     x="22.764463"
     y="93.444359"
     style="font-weight:bold;font-size:12.6889px;font-family:Arial;fill:#2e3436;stroke:#000000;stroke-width:0.181269;stroke-opacity:0.71"
     id="text265">9</text>
  <text
     x="109.77475"
     y="44.500786"
     transform="scale(0.99069765,1.0093897)"
     style="font-weight:bold;font-size:12.6889px;font-family:Arial;fill:#2e3436;stroke:#000000;stroke-width:0.0906347;stroke-opacity:0.71"
     id="text267">1</text>
  <text
     x="127.90169"
     y="64.440407"
     transform="scale(0.99069765,1.0093897)"
     style="font-weight:bold;font-size:12.6889px;font-family:Arial;fill:#2e3436;stroke:#000000;stroke-width:0.0906347;stroke-opacity:0.71"
     id="text269">2</text>
  <text
     x="127.90169"
     y="120.63391"
     transform="scale(0.99069765,1.0093897)"
     style="font-weight:bold;font-size:12.6889px;font-family:Arial;fill:#2e3436;stroke:#000000;stroke-width:0.0906347;stroke-opacity:0.71"
     id="text271">4</text>
  <text
     x="107.96205"
     y="141.47989"
     transform="scale(0.99069765,1.0093897)"
     style="font-weight:bold;font-size:12.6889px;font-family:Arial;fill:#2e3436;stroke:#000000;stroke-width:0.0906347;stroke-opacity:0.71"
     id="text273">5</text>
  <text
     x="50.862206"
     y="142.38623"
     transform="scale(0.99069765,1.0093897)"
     style="font-weight:bold;font-size:12.6889px;font-family:Arial;fill:#2e3436;stroke:#000000;stroke-width:0.0906347;stroke-opacity:0.71"
     id="text275">7</text>
  <text
     x="30.016232"
     y="119.72756"
     transform="scale(0.99069765,1.0093897)"
     style="font-weight:bold;font-size:12.6889px;font-family:Arial;fill:#2e3436;stroke:#000000;stroke-width:0.0906347;stroke-opacity:0.71"
     id="text277">8</text>
  <text
     x="25.484497"
     y="64.440407"
     transform="scale(0.99069765,1.0093897)"
     style="font-weight:bold;font-size:12.6889px;font-family:Arial;fill:#2e3436;stroke:#000000;stroke-width:0.0906347;stroke-opacity:0.71"
     id="text279">10</text>
  <text
     x="46.330471"
     y="43.59444"
     transform="scale(0.99069765,1.0093897)"
     style="font-weight:bold;font-size:12.6889px;font-family:Arial;fill:#2e3436;stroke:#000000;stroke-width:0.0906347;stroke-opacity:0.71"
     id="text281">11</text>
  <path
     style="fill:url(#id7);stroke:#2e1de4;stroke-width:1.45015"
     d="m 76.238924,91.63166 c -0.906346,-0.906346 0,-1.812693 0.906347,-2.71904 L 105.24202,73.504724 c 0.90635,-0.906346 1.81269,0 2.71904,0.906347 v 0 c 0.90635,0.906347 0,1.812694 -0.90635,2.719041 L 78.957965,92.538007 c -0.906347,0.906347 -1.812694,0 -2.719041,-0.906347 z"
     id="path283" />
  <g
     transform="matrix(1.2058389,0,0,1.2058389,6.4404557,14.886819)"
     id="g295">
    <g
       id="g293">
      <linearGradient
         gradientTransform="matrix(1,0,0,-1,0,-538)"
         x1="62.400002"
         y1="-595"
         x2="62.400002"
         y2="-603.20001"
         gradientUnits="userSpaceOnUse"
         id="linearGradient289">
        <stop
           offset="0"
           style="stop-color:#8BA4D6;"
           id="stop285" />
        <stop
           offset="1"
           style="stop-color:#1B3EA6;"
           id="stop287" />
      </linearGradient>
      <circle
         cx="62.400002"
         cy="61.299999"
         r="4.4689999"
         style="fill:url(#id8)"
         id="circle291" />
    </g>
  </g>
  <path
     style="fill:none;stroke:#c4a000;stroke-width:1.99396;marker-start:url(#id9)"
     d="M 157.81014,42.688933 C 142.40224,18.21757 115.21184,0.99698001 83.489699,0.99698001 39.985052,0.99698001 0.10579333,38.157199 1.0121401,87.099926 1.9184869,136.04265 35.453318,168.67114 81.677005,168.67114 c 46.223685,0 79.758515,-37.16022 79.758515,-80.664867 0,-43.504646 -35.34752,-78.8521718 -78.852168,-78.8521718"
     id="path297" />
  <text
     x="160.52919"
     y="55.385155"
     style="font-size:20.846px;font-family:Arial;fill:#c4a000;stroke-width:0.271904px"
     id="text299">14 ⇒ 2</text>
</svg>
